<svg xmlns="http://www.w3.org/2000/svg" xml:space="preserve" width="2000" height="106" data-id="lg_nlh9LBtQAoCVX8h9mU" data-version="1" viewBox="0 0 2000 106"><g data-padding="20"><g transform="translate(10 1.466)scale(.97234)"><rect width="723.084" height="106.22" x="256.623" y="-430.28" fill="none" rx="0" ry="0" transform="translate(400 430.17)"/><g transform="translate(232.96 425.88)"><linearGradient id="a" x1="0" x2="1" y1="0" y2="0" gradientUnits="objectBoundingBox"><stop offset="0%" stop-color="#f00b51"/><stop offset="100%" stop-color="#730062"/></linearGradient><path fill="url(#a)" d="M446.385-347.26q-2.73.09-5.46-.47-2.72-.57-4.6-2.35.09-2.35-.05-6.96t-.52-10.29q-.37-5.69-1.17-11.52t-2.07-10.76q-1.27-4.94-3.05-7.94-1.79-3.01-4.23-3.01-2.17 0-4.89 2.35l-.66-.57q2.63-8.08 6.91-12.31t8.88-4.23q4.04 0 6.77 2.82t4.37 7.57q1.65 4.74 2.35 10.62.71 5.87.71 11.98 0 4.89-.38 9.59t-1.03 8.65q4.98-6.3 8.36-13.77 3.39-7.47 5.17-14.85 1.79-7.38 1.79-13.3 0-1.13-.1-2.31-.09-1.17-.28-2.11 1.98-2.54 5.08-3.9 3.1-1.37 6.2-1.37 3.01 0 5.27 1.27 2.25 1.27 2.82 4-1.23 8.93-4.84 17.86-3.62 8.93-8.79 17.25t-11.05 15.46q-5.87 7.14-11.51 12.6" transform="translate(167.03 4.29)"/></g><path fill="url(#a)" d="M486.705-367.66q-.56-1.22-.8-2.4-.23-1.17-.23-2.21 0-3.66 2.54-6.06 2.53-2.4 6.86-2.4 4.13 0 8.22.33t7.57.33q2.63 0 4.75-.33 2.11-.33 3.43-1.27 1.69 3.1 1.69 5.83 0 3.2-2.35 5.26-2.35 2.07-7.33 2.07-5.17 0-9.12-.14t-7.05-.14q-2.54 0-4.56.19t-3.62.94" transform="translate(400 430.17)"/><path fill="url(#a)" d="M549.125-346.98q-8.56 0-14.01-3.2-5.45-3.19-5.45-10.43 0-.75.05-1.37.04-.61.14-.98.37-2.63 1.6-6.49 1.22-3.85 2.82-8.22 1.59-4.37 3.1-8.6 1.5-4.23 2.54-7.76 1.03-3.52 1.03-5.69 0-2.44-1.6-2.44-1.78 0-4.42 2.68-2.63 2.68-5.54 7.47l-.57-.28q0-6.2 2.45-10.72 2.44-4.51 6.48-7.47 4.05-2.96 9.03-4.37t10.06-1.41q6.29 0 11.84 2.02t9.07 5.78q3.53 3.76 3.53 9.21 0 9.78-11.94 15.23 7.05 1.6 10.34 5.36t3.29 8.37q0 4.04-2.4 8.13t-6.81 7.52q-4.42 3.43-10.67 5.54-6.25 2.12-13.96 2.12m3.66-39.86q4.33.1 7.57-1.36t5.08-3.76q1.83-2.3 1.83-4.75 0-3.19-3.38-5.69-3.39-2.49-10.63-2.49.38 1.79.52 3.58.14 1.78.14 3.47 0 2.73-.33 5.46-.33 2.72-.8 5.54m-1.03 28.39q4.04 0 7.14-1.65 3.11-1.64 4.89-4.23 1.79-2.58 1.79-5.31 0-3.76-3.57-6.95-3.58-3.2-11.19-3.95-.38 2.91-1.55 6.2-1.18 3.29-2.21 6.3t-1.03 5.27q0 1.97 1.22 3.14 1.22 1.18 4.51 1.18" transform="translate(399.99 430.17)"/><path fill="url(#a)" d="M613.795-346.98q-6.3 0-10.86-2.31-4.56-2.3-7.52-6.29-2.96-4-4.41-9.07-1.46-5.08-1.46-10.72 0-7.14 2.21-14.29 2.21-7.14 6.48-13.06 4.28-5.93 10.48-9.55 6.21-3.61 14.2-3.61 6.3 0 10.86 2.3 4.55 2.3 7.52 6.3 2.96 3.99 4.41 9.07 1.46 5.07 1.46 10.71 0 7.05-2.21 14.24-2.21 7.2-6.48 13.12-4.28 5.92-10.49 9.54-6.2 3.62-14.19 3.62m3.48-11.94q3.29 0 5.73-2.26 2.45-2.25 4.09-5.97 1.65-3.71 2.49-8.22.85-4.51.85-9.12 0-5.07-1.08-9.54-1.08-4.46-3.39-7.24-2.3-2.77-5.97-2.77-3.19 0-5.73 2.21t-4.32 5.92q-1.79 3.71-2.68 8.18-.9 4.46-.9 8.98 0 5.17 1.23 9.68 1.22 4.51 3.66 7.33 2.45 2.82 6.02 2.82m40.51 11.66q-2.91 0-5.17-1.41-2.25-1.41-2.25-4.7 0-5.17 2.21-10.53 2.2-5.36 5.45-10.58 3.24-5.21 6.48-10.2 3.25-4.98 5.46-9.49 2.2-4.51 2.2-8.37 0-3.1-1.5-3.1-1.03 0-2.35 1.65-1.32 1.64-1.88 4.84l-1.03-.19q0-5.36 2.53-9.07 2.54-3.71 6.49-5.59t8.08-1.88q4.8 0 8.98 2.72 4.18 2.73 5.78 8.65.66 2.35.99 5.26.33 2.92.42 5.03l.1 2.12q.18 7.61.33 12.88.14 5.26.51 8.83.38 3.57 1.04 6.02.65 2.35 1.74 3.8 1.08 1.46 2.77 1.46 1.6 0 2.77-.94 1.18-.94 1.55-1.78l.66.47q0 4.32-1.69 7.52-1.69 3.19-4.42 4.88-2.73 1.7-5.73 1.7-2.92 0-5.69-1.74t-4.84-5.41q-2.07-3.66-2.73-9.49-2.91-.19-5.68-.33-2.78-.14-5.03-.14-1.51 0-2.87.04-1.36.05-2.68.15-.85 2.91-1.36 5.87-.52 2.96-.52 5.78 0 2.16-2.82 3.71-2.82 1.56-6.3 1.56m14.1-25.67q2.35-.65 4.98-.89 2.64-.23 5.64-.23h2.07q-.19-6.96-.51-14.29-.33-7.33-2.4-13.63-.75 6.77-3.76 14.19-3.01 7.43-6.02 14.85m87.42 25.95q-3.29 0-5.68-1.65-2.4-1.64-4.14-4.27-1.74-2.64-3.01-5.79-1.27-3.14-2.4-6.06-1.69-4.7-3.1-8.22-1.41-3.53-3.1-5.97-1.79 7.14-2.87 13.72t-1.36 14.67q-1.69 1.59-3.81 2.44-2.11.85-4.27.85-3.29 0-5.83-2.31-2.54-2.3-2.54-7.75 0-3.76 1.13-8.46t2.77-9.68q1.65-4.99 3.34-9.69t2.82-8.5q1.13-3.81 1.13-6.07 0-2.35-1.6-2.35-1.79 0-4.33 2.68-2.53 2.68-5.17 7.48l-.56-.19q0-5.64 2.44-10.06 2.45-4.42 6.63-7.47 4.18-3.06 9.68-4.66 5.5-1.59 11.52-1.59 7.99 0 12.97 2.49t7.38 6.39 2.4 8.32q0 4.51-2.31 8.83-2.3 4.33-6.48 7.19-4.19 2.87-9.92 3.34 1.97 1.51 3.38 3.81t2.92 5.22q1.31 2.63 3.1 5.02 1.79 2.4 4.89 2.4 1.6 0 2.63-.8t1.79-2.68l.56.29q.47 1.41.61 2.72.14 1.32.14 2.45 0 5.92-3.29 9.91-3.29 4-8.46 4m-16.73-40.61q3.38 0 5.88-1.55 2.49-1.55 3.85-3.86 1.36-2.3 1.36-4.65 0-2.91-2.21-5.12t-7.19-2.21q-.75 0-1.55.05-.8.04-1.55.14.09.66.09 1.27v.61q0 4.32-.32 8.36-.33 4.05-.9 6.77.66.1 1.27.14.61.05 1.27.05m59.22 40.61q-3.67 0-7.43-.85-3.76-.84-6.9-2.68-3.15-1.83-5.08-4.79t-1.93-7.1v-.89q0-.42.1-1.08.28-2.54 1.27-6.3.98-3.76 2.3-7.99 1.31-4.23 2.58-8.37 1.27-4.13 2.12-7.56.84-3.43.84-5.5 0-2.26-1.22-2.26t-3.66 2.35q-2.45 2.35-5.64 7.8l-.57-.18q0-7.62 3.43-13.02 3.43-5.41 9.78-8.28 6.34-2.86 14.99-2.86 8.09 0 13.91 2.39 5.83 2.4 9.55 6.54 3.71 4.13 5.49 9.44 1.79 5.32 1.79 11.14 0 7.05-2.49 14.15t-7.14 12.97q-4.66 5.88-11.28 9.4-6.63 3.53-14.81 3.53m1.6-12.41q3.76 0 6.81-2.21 3.06-2.21 5.31-5.87 2.26-3.67 3.48-8.14 1.22-4.46 1.22-8.97 0-5.36-1.83-10.06t-5.87-7.61q-4.05-2.92-10.53-2.92.47 1.79.7 3.67.24 1.88.24 3.85 0 4.33-.8 8.84t-1.79 8.74q-.98 4.23-1.78 7.9-.8 3.66-.8 6.48 0 2.92 1.22 4.61t4.42 1.69" transform="translate(400 430.17)"/><g transform="translate(121.07 429.52)scale(1.35)"><linearGradient id="b" x1="0" x2="1" y1="0" y2="0" gradientUnits="objectBoundingBox"><stop offset="0%" stop-color="#f00b51"/><stop offset="100%" stop-color="#730062"/></linearGradient><path fill="url(#b)" d="M507.9-203.385c20.2 0 37.5-10.8 44-26-6.5-15.2-23.8-26-44-26s-37.5 10.8-44 26c6.5 15.2 23.8 26 44 26m39.6-26c-4.9 9.9-15 17.4-27.1 20.4 6.9-4.2 11.5-11.7 11.5-20.4s-4.6-16.2-11.5-20.4c12.1 3 22.2 10.5 27.1 20.4m-19.6 0c0 11-9 20-20 20s-20-9-20-20 9-20 20-20 20 9 20 20m-32.5-20.4c-6.9 4.2-11.5 11.7-11.5 20.4s4.6 16.2 11.5 20.4c-12.1-3-22.2-10.5-27.1-20.4 4.9-9.9 15-17.4 27.1-20.4" transform="translate(-50 -50)"/></g><path fill="#03028f" d="M739.235 68.55c8.91 0 16.2-7.29 16.2-16.2s-7.29-16.2-16.2-16.2c-3.375 0-6.48 1.08-9.045 2.835.27 0 .675-.135.945-.135 2.97 0 5.4 2.43 5.4 5.4s-2.43 5.4-5.4 5.4-5.4-2.43-5.4-5.4c0-.405 0-.675.135-.945-1.755 2.565-2.835 5.67-2.835 9.045 0 8.91 7.29 16.2 16.2 16.2"/></g><path fill="transparent" stroke="transparent" d="M638.5 0h723v106h-723z"/></g></svg>